<svg width="16" height="17" viewBox="0 0 16 17" fill="none" xmlns="http://www.w3.org/2000/svg">
<path d="M14.6669 11.7934V13.7934C14.6677 13.9791 14.6297 14.1629 14.5553 14.333C14.4809 14.5031 14.3718 14.6558 14.235 14.7813C14.0982 14.9068 13.9367 15.0024 13.7608 15.0619C13.5849 15.1214 13.3985 15.1435 13.2136 15.1267C11.1622 14.9038 9.19161 14.2028 7.46028 13.0801C5.8495 12.0565 4.48384 10.6909 3.46028 9.08008C2.3336 7.34088 1.63244 5.36074 1.41361 3.30008C1.39695 3.11572 1.41886 2.92992 1.47795 2.75449C1.53703 2.57907 1.63199 2.41787 1.75679 2.28116C1.88159 2.14445 2.03348 2.03522 2.20281 1.96043C2.37213 1.88563 2.55517 1.84692 2.74028 1.84674H4.74028C5.06382 1.84356 5.37748 1.95813 5.62279 2.1691C5.8681 2.38007 6.02833 2.67304 6.07361 2.99341C6.15803 3.63346 6.31458 4.2619 6.54028 4.86674C6.62998 5.10536 6.64939 5.36469 6.59622 5.614C6.54305 5.86331 6.41952 6.09215 6.24028 6.27341L5.39361 7.12008C6.34265 8.78911 7.72458 10.171 9.39361 11.1201L10.2403 10.2734C10.4215 10.0942 10.6504 9.97064 10.8997 9.91747C11.149 9.8643 11.4083 9.88372 11.6469 9.97341C12.2518 10.1991 12.8802 10.3557 13.5203 10.4401C13.8441 10.4858 14.1399 10.6489 14.3513 10.8984C14.5627 11.1479 14.6751 11.4665 14.6669 11.7934Z" stroke="black" stroke-width="1.33" stroke-linecap="round" stroke-linejoin="round"/>
</svg>
